<?xml version="1.0" encoding="iso-8859-1"?>
<!-- Generator: Adobe Illustrator 19.0.0, SVG Export Plug-In . SVG Version: 6.00 Build 0)  -->
<svg version="1.1" id="Capa_1" xmlns="http://www.w3.org/2000/svg" xmlns:xlink="http://www.w3.org/1999/xlink" x="0px" y="0px"
	 viewBox="0 0 56.771 56.771" style="enable-background:new 0 0 56.771 56.771;" xml:space="preserve">
<g>
	<g>
		<path d="M40.658,22.63c-0.806,0-1.417,0.378-1.878,0.927c-0.014-0.172-0.022-0.32-0.022-0.438c0-2.513-1.388-4.136-3.537-4.136
			c-0.951,0-1.677,0.264-2.218,0.637c-0.325-1.122-1.278-2.367-3.102-2.367c-1.006,0-1.779,0.301-2.354,0.681
			c-0.023-2.931-0.046-5.89-0.046-6.112c0-1.035-1.242-3.049-3.518-3.049c-1.957,0-3.049,1.838-3.386,2.923
			c-0.026,0.086-0.042,0.175-0.044,0.264l-0.474,14.3c-0.829-1.565-2.016-3.063-2.909-3.519c-1.03-0.528-2.785-0.17-3.825,0.781
			c-0.962,0.88-1.214,2.13-0.692,3.429c0.417,1.034,0.669,2.249,0.961,3.656c0.373,1.794,0.837,4.026,1.824,6.749
			c1.585,4.375,6.534,8.995,7.914,10.225v3.288c0,3.256,2.653,5.904,5.914,5.904h6.477c3.261,0,5.914-2.65,5.914-5.909v-3.95
			c1.664-2.281,2.657-6.387,2.7-6.567c0.018-0.076,0.027-0.154,0.027-0.232V26.448C44.385,24.164,42.887,22.63,40.658,22.63z
			 M42.385,39.992c-0.312,1.255-1.285,4.459-2.502,5.947c-0.146,0.179-0.226,0.402-0.226,0.633v4.29
			c0,2.155-1.756,3.909-3.914,3.909h-6.477c-2.158,0-3.914-1.751-3.914-3.904v-3.742c0-0.293-0.128-0.571-0.352-0.761
			c-0.06-0.052-6.054-5.197-7.683-9.691c-0.938-2.588-1.368-4.652-1.746-6.475c-0.312-1.5-0.581-2.796-1.064-3.995
			c-0.26-0.646-0.059-0.963,0.144-1.167c0.396-0.396,1.039-0.544,1.397-0.544c0.092,0,0.165,0.01,0.21,0.028
			c0.674,0.345,2.313,2.669,2.737,4.35c0.173,0.683,0.26,1.332,0.336,1.903c0.146,1.093,0.263,1.955,0.916,2.476
			c0.296,0.235,0.699,0.283,1.042,0.126c0.343-0.159,0.567-0.497,0.58-0.875l0.673-20.316c0.138-0.348,0.628-1.412,1.437-1.412
			c1.159,0,1.517,1.075,1.518,1.05c0,0.47,0.094,12.068,0.094,12.068c0.004,0.528,0.419,0.962,0.946,0.99
			c0.531,0.056,0.985-0.357,1.047-0.882l0.444-3.785c0.185-0.288,0.736-0.961,1.868-0.961c1.01,0,1.198,0.837,1.24,1.268
			l0.627,4.057c0.081,0.521,0.556,0.891,1.077,0.843c0.525-0.047,0.924-0.493,0.911-1.02l-0.062-2.595
			c0.107-0.259,0.463-0.822,1.526-0.822c1.271,0,1.537,1.161,1.537,2.136c0,1.211,0.58,4.338,0.646,4.69
			c0.091,0.488,0.53,0.851,1.025,0.813c0.497-0.021,0.903-0.403,0.953-0.898c0.142-1.401,0.744-3.094,1.277-3.094
			c1.428,0,1.727,0.989,1.727,1.818L42.385,39.992L42.385,39.992z"/>
		<path d="M29.259,11.106c-0.124,0.538,0.211,1.075,0.75,1.199l2.923,0.675c0.076,0.018,0.151,0.025,0.226,0.025
			c0.455,0,0.867-0.313,0.974-0.775c0.124-0.538-0.211-1.075-0.75-1.199l-2.923-0.675C29.923,10.233,29.384,10.567,29.259,11.106z"
			/>
		<path d="M24.384,5c0.552,0,1-0.447,1-1V1c0-0.553-0.448-1-1-1s-1,0.447-1,1v3C23.384,4.553,23.832,5,24.384,5z"/>
		<path d="M29.082,7.268c0.221,0,0.444-0.073,0.629-0.223l2.331-1.888c0.429-0.348,0.495-0.977,0.148-1.406
			c-0.349-0.43-0.979-0.495-1.407-0.148L28.452,5.49c-0.429,0.348-0.495,0.977-0.148,1.406C28.502,7.141,28.791,7.268,29.082,7.268z
			"/>
		<path d="M19.056,7.045c0.185,0.149,0.408,0.223,0.629,0.223c0.291,0,0.58-0.127,0.778-0.371c0.347-0.429,0.281-1.059-0.148-1.406
			l-2.332-1.888c-0.43-0.347-1.059-0.281-1.407,0.148c-0.347,0.429-0.281,1.059,0.148,1.406L19.056,7.045z"/>
		<path d="M15.609,13.006c0.075,0,0.15-0.008,0.226-0.025l2.923-0.675c0.538-0.124,0.873-0.661,0.75-1.199
			c-0.125-0.539-0.664-0.876-1.2-0.75l-2.923,0.675c-0.538,0.124-0.873,0.661-0.75,1.199C14.743,12.693,15.154,13.006,15.609,13.006
			z"/>
	</g>
</g>
<g>
</g>
<g>
</g>
<g>
</g>
<g>
</g>
<g>
</g>
<g>
</g>
<g>
</g>
<g>
</g>
<g>
</g>
<g>
</g>
<g>
</g>
<g>
</g>
<g>
</g>
<g>
</g>
<g>
</g>
</svg>
